<svg width="60" height="61" viewBox="0 0 60 61" fill="none" xmlns="http://www.w3.org/2000/svg">
<rect y="0.5" width="60" height="60" rx="30" fill="#F5F5F5"/>
<path fill-rule="evenodd" clip-rule="evenodd" d="M30 36.917C33.2217 36.917 35.8334 34.3053 35.8334 31.0837C35.8334 27.862 33.2217 25.2503 30 25.2503C26.7784 25.2503 24.1667 27.862 24.1667 31.0837C24.1667 34.3053 26.7784 36.917 30 36.917ZM30 35.167C32.2552 35.167 34.0834 33.3388 34.0834 31.0837C34.0834 28.8285 32.2552 27.0003 30 27.0003C27.7449 27.0003 25.9167 28.8285 25.9167 31.0837C25.9167 33.3388 27.7449 35.167 30 35.167Z" fill="#212121"/>
<path d="M37.5834 28.7503C38.2277 28.7503 38.75 28.228 38.75 27.5837C38.75 26.9393 38.2277 26.417 37.5834 26.417C36.939 26.417 36.4167 26.9393 36.4167 27.5837C36.4167 28.228 36.939 28.7503 37.5834 28.7503Z" fill="#212121"/>
<path fill-rule="evenodd" clip-rule="evenodd" d="M25.4475 20.5967C25.6138 20.4033 25.8561 20.292 26.1112 20.292H33.8889C34.144 20.292 34.3863 20.4033 34.5525 20.5967L36.8833 23.3088H41.6667C42.15 23.3088 42.5417 23.7006 42.5417 24.1838V39.8337C42.5417 40.3169 42.15 40.7087 41.6667 40.7087H18.3334C17.8501 40.7087 17.4584 40.3169 17.4584 39.8337V24.1838C17.4584 23.7006 17.8501 23.3088 18.3334 23.3088H23.1168L25.4475 20.5967ZM26.5129 22.042L24.1822 24.7541C24.0159 24.9476 23.7736 25.0588 23.5186 25.0588H19.2084V38.9587H40.7917V25.0588H36.4815C36.2265 25.0588 35.9841 24.9476 35.8179 24.7541L33.4872 22.042H26.5129Z" fill="#212121"/>
</svg>
